# xmcd
#
# Track frame offsets:
#	150
#	11551
#	26291
#	46345
#	67821
#	77620
#	100526
#	130180
#	146391
#	158515
#	178145
#	193538
#
# Disc length: 3017 seconds
#
# Revision: 2
# Processed by: cddbd v1.5.2PL0 Copyright (c) Steve Scherf et al.
# Submitted via: audiograbber 1.83.01
#
DISCID=860bc70c
DTITLE=Atmosphere - Sad Clown Bad Dub 3
DYEAR=2002
DGENRE=Hip-Hop
TTITLE0=Aspiring Sociopath
TTITLE1=The Woman With The Tattooed Hands
TTITLE2=Between The Lines
TTITLE3=Like Today
TTITLE4=3.2 Red Dog 2.28.96
TTITLE5=It Goes
TTITLE6=The Abusing Of The Rib
TTITLE7=Party For The Fight To Write
TTITLE8=Don't Ever Fucking Question That
TTITLE9=The River
TTITLE10=Scapegoat
TTITLE11=Shrapnel
EXTD=www.RapMusicGuide.com
EXTT0=
EXTT1=
EXTT2=
EXTT3=
EXTT4=
EXTT5=
EXTT6=
EXTT7=
EXTT8=
EXTT9=
EXTT10=
EXTT11=
PLAYORDER=
